STARTFONT 2.1
FONT -FontForge-Retro Gaming-Book-R-Normal--11-110-75-75-P-87-ISO10646-1
SIZE 11 75 75
FONTBOUNDINGBOX 15 14 -1 -3
COMMENT "Generated by fontforge, http://fontforge.sourceforge.net"
COMMENT "Copyright (c) 2019 by Vasily Draigo aka Daymarius. All rights reserved."
STARTPROPERTIES 39
FOUNDRY "FontForge"
FAMILY_NAME "Retro Gaming"
WEIGHT_NAME "Book"
SLANT "R"
SETWIDTH_NAME "Normal"
ADD_STYLE_NAME ""
PIXEL_SIZE 11
POINT_SIZE 110
RESOLUTION_X 75
RESOLUTION_Y 75
SPACING "P"
AVERAGE_WIDTH 87
CHARSET_REGISTRY "ISO10646"
CHARSET_ENCODING "1"
FONTNAME_REGISTRY ""
CHARSET_COLLECTIONS "ISO8859-5 ISO10646-1"
FONT_NAME "RetroGaming"
FACE_NAME "Retro Gaming"
COPYRIGHT "Copyright (c) 2019 by Vasily Draigo aka Daymarius. All rights reserved."
FONT_VERSION "1.00 February 22, 2019, initial release"
FONT_ASCENT 9
FONT_DESCENT 2
UNDERLINE_POSITION 1
UNDERLINE_THICKNESS 1
X_HEIGHT 4
CAP_HEIGHT 7
RAW_ASCENT 799
RAW_DESCENT 200
NORM_SPACE 4
RELATIVE_WEIGHT 40
RELATIVE_SETWIDTH 50
SUPERSCRIPT_X 0
SUPERSCRIPT_Y 5
SUPERSCRIPT_SIZE 5
SUBSCRIPT_X 0
SUBSCRIPT_Y -1
SUBSCRIPT_SIZE 5
AVG_LOWERCASE_WIDTH 89
AVG_UPPERCASE_WIDTH 93
ENDPROPERTIES
CHARS 319
STARTCHAR space
ENCODING 32
SWIDTH 363 0
DWIDTH 4 0
BBX 1 1 0 0
BITMAP
00
ENDCHAR
STARTCHAR exclam
ENCODING 33
SWIDTH 318 0
DWIDTH 4 0
BBX 2 8 1 0
BITMAP
C0
C0
C0
C0
C0
00
C0
C0
ENDCHAR
STARTCHAR quotedbl
ENCODING 34
SWIDTH 590 0
DWIDTH 7 0
BBX 5 3 1 5
BITMAP
D8
D8
D8
ENDCHAR
STARTCHAR numbersign
ENCODING 35
SWIDTH 1045 0
DWIDTH 12 0
BBX 10 8 1 0
BITMAP
3300
3300
FFC0
3300
3300
FFC0
3300
3300
ENDCHAR
STARTCHAR dollar
ENCODING 36
SWIDTH 772 0
DWIDTH 9 0
BBX 7 12 1 -2
BITMAP
38
38
7C
D6
D0
7C
16
16
D6
7C
38
38
ENDCHAR
STARTCHAR percent
ENCODING 37
SWIDTH 772 0
DWIDTH 9 0
BBX 7 8 1 0
BITMAP
66
A6
CC
18
30
66
CA
CC
ENDCHAR
STARTCHAR ampersand
ENCODING 38
SWIDTH 863 0
DWIDTH 10 0
BBX 8 8 1 0
BITMAP
7C
C6
C0
70
CF
CE
CE
7C
ENDCHAR
STARTCHAR quotesingle
ENCODING 39
SWIDTH 318 0
DWIDTH 4 0
BBX 2 3 1 5
BITMAP
C0
C0
C0
ENDCHAR
STARTCHAR parenleft
ENCODING 40
SWIDTH 500 0
DWIDTH 6 0
BBX 4 8 1 0
BITMAP
30
60
C0
C0
C0
C0
60
30
ENDCHAR
STARTCHAR parenright
ENCODING 41
SWIDTH 500 0
DWIDTH 6 0
BBX 4 8 1 0
BITMAP
C0
60
30
30
30
30
60
C0
ENDCHAR
STARTCHAR asterisk
ENCODING 42
SWIDTH 863 0
DWIDTH 10 0
BBX 8 5 1 2
BITMAP
7E
3C
FF
3C
7E
ENDCHAR
STARTCHAR plus
ENCODING 43
SWIDTH 681 0
DWIDTH 8 0
BBX 6 6 1 1
BITMAP
30
30
3C
F0
30
30
ENDCHAR
STARTCHAR comma
ENCODING 44
SWIDTH 318 0
DWIDTH 4 0
BBX 3 3 0 -1
BITMAP
60
60
C0
ENDCHAR
STARTCHAR hyphen
ENCODING 45
SWIDTH 500 0
DWIDTH 6 0
BBX 4 2 1 3
BITMAP
F0
F0
ENDCHAR
STARTCHAR period
ENCODING 46
SWIDTH 318 0
DWIDTH 4 0
BBX 2 2 1 0
BITMAP
C0
C0
ENDCHAR
STARTCHAR slash
ENCODING 47
SWIDTH 772 0
DWIDTH 9 0
BBX 7 8 1 0
BITMAP
06
06
0C
18
30
60
C0
C0
ENDCHAR
STARTCHAR zero
ENCODING 48
SWIDTH 772 0
DWIDTH 9 0
BBX 7 8 1 0
BITMAP
7C
C6
CE
DE
F6
E6
C6
7C
ENDCHAR
STARTCHAR one
ENCODING 49
SWIDTH 500 0
DWIDTH 6 0
BBX 4 8 1 0
BITMAP
60
E0
60
60
60
60
60
F0
ENDCHAR
STARTCHAR two
ENCODING 50
SWIDTH 772 0
DWIDTH 9 0
BBX 7 8 1 0
BITMAP
7C
C6
06
7C
C0
C0
C6
FE
ENDCHAR
STARTCHAR three
ENCODING 51
SWIDTH 772 0
DWIDTH 9 0
BBX 7 8 1 0
BITMAP
FE
0C
18
3C
06
06
C6
7C
ENDCHAR
STARTCHAR four
ENCODING 52
SWIDTH 772 0
DWIDTH 9 0
BBX 7 8 1 0
BITMAP
1E
36
66
C6
FE
06
06
06
ENDCHAR
STARTCHAR five
ENCODING 53
SWIDTH 772 0
DWIDTH 9 0
BBX 7 8 1 0
BITMAP
FC
C0
C0
FC
06
06
C6
7C
ENDCHAR
STARTCHAR six
ENCODING 54
SWIDTH 772 0
DWIDTH 9 0
BBX 7 8 1 0
BITMAP
7C
C6
C0
FC
C6
C6
C6
7C
ENDCHAR
STARTCHAR seven
ENCODING 55
SWIDTH 772 0
DWIDTH 9 0
BBX 7 8 1 0
BITMAP
FE
C6
0C
18
30
30
30
30
ENDCHAR
STARTCHAR eight
ENCODING 56
SWIDTH 772 0
DWIDTH 9 0
BBX 7 8 1 0
BITMAP
7C
C6
C6
7C
C6
C6
C6
7C
ENDCHAR
STARTCHAR nine
ENCODING 57
SWIDTH 772 0
DWIDTH 9 0
BBX 7 8 1 0
BITMAP
7C
C6
C6
C6
7E
06
C6
7C
ENDCHAR
STARTCHAR colon
ENCODING 58
SWIDTH 318 0
DWIDTH 4 0
BBX 2 6 1 0
BITMAP
C0
C0
00
00
C0
C0
ENDCHAR
STARTCHAR semicolon
ENCODING 59
SWIDTH 318 0
DWIDTH 4 0
BBX 3 7 0 -1
BITMAP
60
60
00
00
60
60
C0
ENDCHAR
STARTCHAR less
ENCODING 60
SWIDTH 590 0
DWIDTH 7 0
BBX 5 7 1 0
BITMAP
18
30
60
C0
60
30
18
ENDCHAR
STARTCHAR equal
ENCODING 61
SWIDTH 590 0
DWIDTH 7 0
BBX 5 3 1 2
BITMAP
F8
00
F8
ENDCHAR
STARTCHAR greater
ENCODING 62
SWIDTH 590 0
DWIDTH 7 0
BBX 5 7 1 0
BITMAP
C0
60
30
18
30
60
C0
ENDCHAR
STARTCHAR question
ENCODING 63
SWIDTH 772 0
DWIDTH 9 0
BBX 7 8 1 0
BITMAP
7C
C6
06
1C
30
00
30
30
ENDCHAR
STARTCHAR at
ENCODING 64
SWIDTH 772 0
DWIDTH 9 0
BBX 7 8 1 0
BITMAP
7C
82
BA
AA
AA
BE
80
7C
ENDCHAR
STARTCHAR A
ENCODING 65
SWIDTH 772 0
DWIDTH 9 0
BBX 7 8 1 0
BITMAP
38
6C
C6
C6
FE
C6
C6
C6
ENDCHAR
STARTCHAR B
ENCODING 66
SWIDTH 772 0
DWIDTH 9 0
BBX 7 8 1 0
BITMAP
FC
C6
C6
FC
C6
C6
C6
FC
ENDCHAR
STARTCHAR C
ENCODING 67
SWIDTH 772 0
DWIDTH 9 0
BBX 7 8 1 0
BITMAP
3C
66
C0
C0
C0
C0
66
3C
ENDCHAR
STARTCHAR D
ENCODING 68
SWIDTH 772 0
DWIDTH 9 0
BBX 7 8 1 0
BITMAP
F8
CC
C6
C6
C6
C6
CC
F8
ENDCHAR
STARTCHAR E
ENCODING 69
SWIDTH 772 0
DWIDTH 9 0
BBX 7 8 1 0
BITMAP
FE
C0
C0
F8
C0
C0
C0
FE
ENDCHAR
STARTCHAR F
ENCODING 70
SWIDTH 772 0
DWIDTH 9 0
BBX 7 8 1 0
BITMAP
FE
C0
C0
F8
C0
C0
C0
C0
ENDCHAR
STARTCHAR G
ENCODING 71
SWIDTH 772 0
DWIDTH 9 0
BBX 7 8 1 0
BITMAP
3C
66
C0
DE
DE
C6
66
3E
ENDCHAR
STARTCHAR H
ENCODING 72
SWIDTH 772 0
DWIDTH 9 0
BBX 7 8 1 0
BITMAP
C6
C6
C6
FE
C6
C6
C6
C6
ENDCHAR
STARTCHAR I
ENCODING 73
SWIDTH 681 0
DWIDTH 8 0
BBX 6 8 1 0
BITMAP
FC
30
30
30
30
30
30
FC
ENDCHAR
STARTCHAR J
ENCODING 74
SWIDTH 772 0
DWIDTH 9 0
BBX 7 8 1 0
BITMAP
3E
06
06
06
06
C6
C6
7C
ENDCHAR
STARTCHAR K
ENCODING 75
SWIDTH 772 0
DWIDTH 9 0
BBX 7 8 1 0
BITMAP
C6
CC
D8
F0
D8
CC
C6
C6
ENDCHAR
STARTCHAR L
ENCODING 76
SWIDTH 681 0
DWIDTH 8 0
BBX 6 8 1 0
BITMAP
C0
C0
C0
C0
C0
C0
C0
FC
ENDCHAR
STARTCHAR M
ENCODING 77
SWIDTH 772 0
DWIDTH 9 0
BBX 7 8 1 0
BITMAP
82
C6
EE
FE
D6
C6
C6
C6
ENDCHAR
STARTCHAR N
ENCODING 78
SWIDTH 772 0
DWIDTH 9 0
BBX 7 8 1 0
BITMAP
86
C6
E6
F6
DE
CE
C6
C2
ENDCHAR
STARTCHAR O
ENCODING 79
SWIDTH 772 0
DWIDTH 9 0
BBX 7 8 1 0
BITMAP
7C
C6
C6
C6
C6
C6
C6
7C
ENDCHAR
STARTCHAR P
ENCODING 80
SWIDTH 772 0
DWIDTH 9 0
BBX 7 8 1 0
BITMAP
FC
C6
C6
FC
C0
C0
C0
C0
ENDCHAR
STARTCHAR Q
ENCODING 81
SWIDTH 772 0
DWIDTH 9 0
BBX 7 8 1 0
BITMAP
7C
C6
C6
C6
C6
DE
CC
7A
ENDCHAR
STARTCHAR R
ENCODING 82
SWIDTH 772 0
DWIDTH 9 0
BBX 7 8 1 0
BITMAP
FC
C6
C6
FC
C6
C6
C6
C6
ENDCHAR
STARTCHAR S
ENCODING 83
SWIDTH 772 0
DWIDTH 9 0
BBX 7 8 1 0
BITMAP
7C
C6
C0
7C
06
06
C6
7C
ENDCHAR
STARTCHAR T
ENCODING 84
SWIDTH 772 0
DWIDTH 9 0
BBX 7 8 1 0
BITMAP
FE
38
38
38
38
38
38
38
ENDCHAR
STARTCHAR U
ENCODING 85
SWIDTH 772 0
DWIDTH 9 0
BBX 7 8 1 0
BITMAP
C6
C6
C6
C6
C6
C6
C6
7C
ENDCHAR
STARTCHAR V
ENCODING 86
SWIDTH 772 0
DWIDTH 9 0
BBX 7 8 1 0
BITMAP
C6
C6
C6
C6
C6
6C
38
10
ENDCHAR
STARTCHAR W
ENCODING 87
SWIDTH 863 0
DWIDTH 10 0
BBX 8 8 1 0
BITMAP
DB
DB
DB
DB
DB
FF
E7
42
ENDCHAR
STARTCHAR X
ENCODING 88
SWIDTH 772 0
DWIDTH 9 0
BBX 7 8 1 0
BITMAP
C6
C6
6C
38
6C
C6
C6
C6
ENDCHAR
STARTCHAR Y
ENCODING 89
SWIDTH 772 0
DWIDTH 9 0
BBX 7 8 1 0
BITMAP
C6
C6
C6
6C
38
38
38
38
ENDCHAR
STARTCHAR Z
ENCODING 90
SWIDTH 772 0
DWIDTH 9 0
BBX 7 8 1 0
BITMAP
FE
06
0C
18
30
60
C0
FE
ENDCHAR
STARTCHAR bracketleft
ENCODING 91
SWIDTH 500 0
DWIDTH 6 0
BBX 4 8 1 0
BITMAP
F0
C0
C0
C0
C0
C0
C0
F0
ENDCHAR
STARTCHAR backslash
ENCODING 92
SWIDTH 772 0
DWIDTH 9 0
BBX 7 8 1 0
BITMAP
C0
C0
60
30
18
0C
06
06
ENDCHAR
STARTCHAR bracketright
ENCODING 93
SWIDTH 500 0
DWIDTH 6 0
BBX 4 8 1 0
BITMAP
F0
30
30
30
30
30
30
F0
ENDCHAR
STARTCHAR asciicircum
ENCODING 94
SWIDTH 772 0
DWIDTH 9 0
BBX 7 3 1 5
BITMAP
38
6C
C6
ENDCHAR
STARTCHAR underscore
ENCODING 95
SWIDTH 590 0
DWIDTH 7 0
BBX 5 1 1 0
BITMAP
F8
ENDCHAR
STARTCHAR grave
ENCODING 96
SWIDTH 500 0
DWIDTH 6 0
BBX 4 3 1 5
BITMAP
C0
60
30
ENDCHAR
STARTCHAR a
ENCODING 97
SWIDTH 772 0
DWIDTH 9 0
BBX 7 5 1 0
BITMAP
7C
06
7E
C6
7E
ENDCHAR
STARTCHAR b
ENCODING 98
SWIDTH 772 0
DWIDTH 9 0
BBX 7 8 1 0
BITMAP
C0
C0
C0
FC
C6
C6
C6
FC
ENDCHAR
STARTCHAR c
ENCODING 99
SWIDTH 772 0
DWIDTH 9 0
BBX 7 5 1 0
BITMAP
7C
C6
C0
C6
7C
ENDCHAR
STARTCHAR d
ENCODING 100
SWIDTH 772 0
DWIDTH 9 0
BBX 7 8 1 0
BITMAP
06
06
06
7E
C6
C6
C6
7E
ENDCHAR
STARTCHAR e
ENCODING 101
SWIDTH 772 0
DWIDTH 9 0
BBX 7 5 1 0
BITMAP
7C
C6
FE
C0
7C
ENDCHAR
STARTCHAR f
ENCODING 102
SWIDTH 590 0
DWIDTH 7 0
BBX 5 8 1 0
BITMAP
38
60
60
F8
60
60
60
60
ENDCHAR
STARTCHAR g
ENCODING 103
SWIDTH 772 0
DWIDTH 9 0
BBX 7 8 1 -3
BITMAP
7E
C6
C6
C6
7E
06
06
7C
ENDCHAR
STARTCHAR h
ENCODING 104
SWIDTH 772 0
DWIDTH 9 0
BBX 7 8 1 0
BITMAP
C0
C0
C0
FC
C6
C6
C6
C6
ENDCHAR
STARTCHAR i
ENCODING 105
SWIDTH 318 0
DWIDTH 4 0
BBX 2 8 1 0
BITMAP
C0
C0
00
C0
C0
C0
C0
C0
ENDCHAR
STARTCHAR j
ENCODING 106
SWIDTH 590 0
DWIDTH 7 0
BBX 5 9 1 -1
BITMAP
18
18
00
18
18
18
18
D8
70
ENDCHAR
STARTCHAR k
ENCODING 107
SWIDTH 681 0
DWIDTH 8 0
BBX 6 8 1 0
BITMAP
C0
C0
C0
CC
D8
F0
D8
CC
ENDCHAR
STARTCHAR l
ENCODING 108
SWIDTH 408 0
DWIDTH 5 0
BBX 3 8 1 0
BITMAP
C0
C0
C0
C0
C0
C0
C0
60
ENDCHAR
STARTCHAR m
ENCODING 109
SWIDTH 772 0
DWIDTH 9 0
BBX 7 5 1 0
BITMAP
FC
D6
D6
D6
D6
ENDCHAR
STARTCHAR n
ENCODING 110
SWIDTH 772 0
DWIDTH 9 0
BBX 7 5 1 0
BITMAP
FC
C6
C6
C6
C6
ENDCHAR
STARTCHAR o
ENCODING 111
SWIDTH 772 0
DWIDTH 9 0
BBX 7 5 1 0
BITMAP
7C
C6
C6
C6
7C
ENDCHAR
STARTCHAR p
ENCODING 112
SWIDTH 772 0
DWIDTH 9 0
BBX 7 8 1 -3
BITMAP
FC
C6
C6
C6
FC
C0
C0
C0
ENDCHAR
STARTCHAR q
ENCODING 113
SWIDTH 772 0
DWIDTH 9 0
BBX 7 8 1 -3
BITMAP
7E
C6
C6
C6
7E
06
06
06
ENDCHAR
STARTCHAR r
ENCODING 114
SWIDTH 681 0
DWIDTH 8 0
BBX 6 5 1 0
BITMAP
DC
E0
C0
C0
C0
ENDCHAR
STARTCHAR s
ENCODING 115
SWIDTH 772 0
DWIDTH 9 0
BBX 7 5 1 0
BITMAP
7C
C0
7C
06
FC
ENDCHAR
STARTCHAR t
ENCODING 116
SWIDTH 590 0
DWIDTH 7 0
BBX 5 8 1 0
BITMAP
60
60
60
F8
60
60
60
38
ENDCHAR
STARTCHAR u
ENCODING 117
SWIDTH 772 0
DWIDTH 9 0
BBX 7 5 1 0
BITMAP
C6
C6
C6
C6
7C
ENDCHAR
STARTCHAR v
ENCODING 118
SWIDTH 772 0
DWIDTH 9 0
BBX 7 5 1 0
BITMAP
C6
C6
C6
6C
38
ENDCHAR
STARTCHAR w
ENCODING 119
SWIDTH 772 0
DWIDTH 9 0
BBX 7 5 1 0
BITMAP
D6
D6
D6
D6
6C
ENDCHAR
STARTCHAR x
ENCODING 120
SWIDTH 772 0
DWIDTH 9 0
BBX 7 5 1 0
BITMAP
C6
6C
38
6C
C6
ENDCHAR
STARTCHAR y
ENCODING 121
SWIDTH 772 0
DWIDTH 9 0
BBX 7 8 1 -3
BITMAP
C6
C6
C6
C6
7E
06
06
7C
ENDCHAR
STARTCHAR z
ENCODING 122
SWIDTH 772 0
DWIDTH 9 0
BBX 7 5 1 0
BITMAP
FE
1C
38
70
FE
ENDCHAR
STARTCHAR braceleft
ENCODING 123
SWIDTH 500 0
DWIDTH 6 0
BBX 4 8 1 0
BITMAP
30
60
60
40
E0
60
60
30
ENDCHAR
STARTCHAR bar
ENCODING 124
SWIDTH 318 0
DWIDTH 4 0
BBX 2 10 1 -2
BITMAP
C0
C0
C0
C0
C0
C0
C0
C0
C0
C0
ENDCHAR
STARTCHAR braceright
ENCODING 125
SWIDTH 500 0
DWIDTH 6 0
BBX 4 8 1 0
BITMAP
C0
60
60
70
20
60
60
C0
ENDCHAR
STARTCHAR asciitilde
ENCODING 126
SWIDTH 681 0
DWIDTH 8 0
BBX 6 3 1 3
BITMAP
60
B4
18
ENDCHAR
STARTCHAR exclamdown
ENCODING 161
SWIDTH 318 0
DWIDTH 4 0
BBX 2 8 1 0
BITMAP
C0
C0
00
C0
C0
C0
C0
C0
ENDCHAR
STARTCHAR cent
ENCODING 162
SWIDTH 772 0
DWIDTH 9 0
BBX 7 7 1 -1
BITMAP
10
7C
D6
D0
D6
7C
10
ENDCHAR
STARTCHAR sterling
ENCODING 163
SWIDTH 772 0
DWIDTH 9 0
BBX 7 8 1 0
BITMAP
3C
66
60
FC
60
60
60
FE
ENDCHAR
STARTCHAR currency
ENCODING 164
SWIDTH 727 0
DWIDTH 8 0
BBX 7 6 1 1
BITMAP
BE
FE
4C
4C
FE
BE
ENDCHAR
STARTCHAR yen
ENCODING 165
SWIDTH 772 0
DWIDTH 9 0
BBX 7 8 1 0
BITMAP
C6
C6
C6
6C
3E
F8
FE
38
ENDCHAR
STARTCHAR brokenbar
ENCODING 166
SWIDTH 272 0
DWIDTH 3 0
BBX 2 13 1 -3
BITMAP
C0
C0
C0
C0
C0
C0
00
C0
C0
C0
C0
C0
C0
ENDCHAR
STARTCHAR section
ENCODING 167
SWIDTH 772 0
DWIDTH 9 0
BBX 7 8 1 0
BITMAP
7C
C6
F8
C4
44
3E
C6
7C
ENDCHAR
STARTCHAR dieresis
ENCODING 168
SWIDTH 590 0
DWIDTH 7 0
BBX 5 2 1 6
BITMAP
D8
D8
ENDCHAR
STARTCHAR copyright
ENCODING 169
SWIDTH 954 0
DWIDTH 11 0
BBX 9 8 1 0
BITMAP
7F00
C180
DF80
F980
F980
DF80
C180
7F00
ENDCHAR
STARTCHAR ordfeminine
ENCODING 170
SWIDTH 500 0
DWIDTH 6 0
BBX 4 6 1 2
BITMAP
60
10
70
90
90
70
ENDCHAR
STARTCHAR guillemotleft
ENCODING 171
SWIDTH 954 0
DWIDTH 11 0
BBX 9 7 1 0
BITMAP
1980
3300
6600
CC00
6600
3300
1980
ENDCHAR
STARTCHAR registered
ENCODING 174
SWIDTH 681 0
DWIDTH 8 0
BBX 6 6 1 2
BITMAP
78
FC
FC
F4
FC
78
ENDCHAR
STARTCHAR plusminus
ENCODING 177
SWIDTH 681 0
DWIDTH 8 0
BBX 6 8 1 0
BITMAP
30
30
3C
F0
30
30
FC
FC
ENDCHAR
STARTCHAR mu
ENCODING 181
SWIDTH 772 0
DWIDTH 9 0
BBX 8 8 0 -3
BITMAP
E3
E3
E3
F7
FF
E0
E0
E0
ENDCHAR
STARTCHAR paragraph
ENCODING 182
SWIDTH 772 0
DWIDTH 9 0
BBX 7 8 1 0
BITMAP
7E
FA
FA
7A
0A
0A
0A
0A
ENDCHAR
STARTCHAR guillemotright
ENCODING 187
SWIDTH 954 0
DWIDTH 11 0
BBX 9 7 1 0
BITMAP
CC00
6600
3300
1980
3300
6600
CC00
ENDCHAR
STARTCHAR questiondown
ENCODING 191
SWIDTH 772 0
DWIDTH 9 0
BBX 7 8 1 0
BITMAP
18
18
00
18
70
C0
C6
7C
ENDCHAR
STARTCHAR Agrave
ENCODING 192
SWIDTH 772 0
DWIDTH 9 0
BBX 7 11 1 0
BITMAP
70
38
00
38
6C
C6
C6
FE
C6
C6
C6
ENDCHAR
STARTCHAR Aacute
ENCODING 193
SWIDTH 772 0
DWIDTH 9 0
BBX 7 11 1 0
BITMAP
1C
38
00
38
6C
C6
C6
FE
C6
C6
C6
ENDCHAR
STARTCHAR Acircumflex
ENCODING 194
SWIDTH 772 0
DWIDTH 9 0
BBX 7 11 1 0
BITMAP
38
6C
00
38
6C
C6
C6
FE
C6
C6
C6
ENDCHAR
STARTCHAR Atilde
ENCODING 195
SWIDTH 772 0
DWIDTH 9 0
BBX 7 11 1 0
BITMAP
3C
78
00
38
6C
C6
C6
FE
C6
C6
C6
ENDCHAR
STARTCHAR Adieresis
ENCODING 196
SWIDTH 772 0
DWIDTH 9 0
BBX 7 11 1 0
BITMAP
6C
6C
00
38
6C
C6
C6
FE
C6
C6
C6
ENDCHAR
STARTCHAR Aring
ENCODING 197
SWIDTH 772 0
DWIDTH 9 0
BBX 7 11 1 0
BITMAP
10
28
10
38
6C
C6
C6
FE
C6
C6
C6
ENDCHAR
STARTCHAR AE
ENCODING 198
SWIDTH 1045 0
DWIDTH 12 0
BBX 10 8 1 0
BITMAP
3FC0
6C00
CC00
CF80
FC00
CC00
CC00
CFC0
ENDCHAR
STARTCHAR Ccedilla
ENCODING 199
SWIDTH 772 0
DWIDTH 9 0
BBX 7 10 1 -2
BITMAP
3C
66
C0
C0
C0
C0
66
3C
0C
38
ENDCHAR
STARTCHAR Egrave
ENCODING 200
SWIDTH 772 0
DWIDTH 9 0
BBX 7 11 1 0
BITMAP
70
38
00
FE
C0
C0
F8
C0
C0
C0
FE
ENDCHAR
STARTCHAR Eacute
ENCODING 201
SWIDTH 772 0
DWIDTH 9 0
BBX 7 11 1 0
BITMAP
1C
38
00
FE
C0
C0
F8
C0
C0
C0
FE
ENDCHAR
STARTCHAR Ecircumflex
ENCODING 202
SWIDTH 772 0
DWIDTH 9 0
BBX 7 11 1 0
BITMAP
38
6C
00
FE
C0
C0
F8
C0
C0
C0
FE
ENDCHAR
STARTCHAR Edieresis
ENCODING 203
SWIDTH 772 0
DWIDTH 9 0
BBX 7 11 1 0
BITMAP
6C
6C
00
FE
C0
C0
F8
C0
C0
C0
FE
ENDCHAR
STARTCHAR Igrave
ENCODING 204
SWIDTH 681 0
DWIDTH 8 0
BBX 6 11 1 0
BITMAP
60
30
00
FC
30
30
30
30
30
30
FC
ENDCHAR
STARTCHAR Iacute
ENCODING 205
SWIDTH 681 0
DWIDTH 8 0
BBX 6 11 1 0
BITMAP
18
30
00
FC
30
30
30
30
30
30
FC
ENDCHAR
STARTCHAR Icircumflex
ENCODING 206
SWIDTH 681 0
DWIDTH 8 0
BBX 6 11 1 0
BITMAP
78
FC
00
FC
30
30
30
30
30
30
FC
ENDCHAR
STARTCHAR Idieresis
ENCODING 207
SWIDTH 681 0
DWIDTH 8 0
BBX 6 11 1 0
BITMAP
FC
FC
00
FC
30
30
30
30
30
30
FC
ENDCHAR
STARTCHAR Eth
ENCODING 208
SWIDTH 863 0
DWIDTH 10 0
BBX 8 8 1 0
BITMAP
7C
66
63
7B
E3
63
66
7C
ENDCHAR
STARTCHAR Ntilde
ENCODING 209
SWIDTH 772 0
DWIDTH 9 0
BBX 7 11 1 0
BITMAP
3C
78
00
86
C6
E6
F6
DE
CE
C6
C2
ENDCHAR
STARTCHAR Ograve
ENCODING 210
SWIDTH 772 0
DWIDTH 9 0
BBX 7 11 1 0
BITMAP
70
38
00
7C
C6
C6
C6
C6
C6
C6
7C
ENDCHAR
STARTCHAR Oacute
ENCODING 211
SWIDTH 772 0
DWIDTH 9 0
BBX 7 11 1 0
BITMAP
1C
38
00
7C
C6
C6
C6
C6
C6
C6
7C
ENDCHAR
STARTCHAR Ocircumflex
ENCODING 212
SWIDTH 772 0
DWIDTH 9 0
BBX 7 11 1 0
BITMAP
38
6C
00
7C
C6
C6
C6
C6
C6
C6
7C
ENDCHAR
STARTCHAR Otilde
ENCODING 213
SWIDTH 772 0
DWIDTH 9 0
BBX 7 11 1 0
BITMAP
3C
78
00
7C
C6
C6
C6
C6
C6
C6
7C
ENDCHAR
STARTCHAR Odieresis
ENCODING 214
SWIDTH 772 0
DWIDTH 9 0
BBX 7 11 1 0
BITMAP
6C
6C
00
7C
C6
C6
C6
C6
C6
C6
7C
ENDCHAR
STARTCHAR multiply
ENCODING 215
SWIDTH 590 0
DWIDTH 7 0
BBX 5 5 1 2
BITMAP
88
50
20
50
88
ENDCHAR
STARTCHAR Oslash
ENCODING 216
SWIDTH 772 0
DWIDTH 9 0
BBX 7 8 1 0
BITMAP
7A
C6
CE
D6
D6
E6
46
B8
ENDCHAR
STARTCHAR Ugrave
ENCODING 217
SWIDTH 772 0
DWIDTH 9 0
BBX 7 11 1 0
BITMAP
70
38
00
C6
C6
C6
C6
C6
C6
C6
7C
ENDCHAR
STARTCHAR Uacute
ENCODING 218
SWIDTH 772 0
DWIDTH 9 0
BBX 7 11 1 0
BITMAP
1C
38
00
C6
C6
C6
C6
C6
C6
C6
7C
ENDCHAR
STARTCHAR Ucircumflex
ENCODING 219
SWIDTH 772 0
DWIDTH 9 0
BBX 7 11 1 0
BITMAP
38
6C
00
C6
C6
C6
C6
C6
C6
C6
7C
ENDCHAR
STARTCHAR Udieresis
ENCODING 220
SWIDTH 772 0
DWIDTH 9 0
BBX 7 11 1 0
BITMAP
6C
6C
00
C6
C6
C6
C6
C6
C6
C6
7C
ENDCHAR
STARTCHAR Yacute
ENCODING 221
SWIDTH 772 0
DWIDTH 9 0
BBX 7 11 1 0
BITMAP
1C
38
00
C6
C6
C6
6C
38
38
38
38
ENDCHAR
STARTCHAR Thorn
ENCODING 222
SWIDTH 772 0
DWIDTH 9 0
BBX 7 8 1 0
BITMAP
C0
FC
C6
C6
C6
C6
FC
C0
ENDCHAR
STARTCHAR germandbls
ENCODING 223
SWIDTH 772 0
DWIDTH 9 0
BBX 7 8 1 0
BITMAP
F8
CC
CC
D8
D8
CC
F6
DC
ENDCHAR
STARTCHAR agrave
ENCODING 224
SWIDTH 772 0
DWIDTH 9 0
BBX 7 8 1 0
BITMAP
70
38
00
7C
06
7E
C6
7E
ENDCHAR
STARTCHAR aacute
ENCODING 225
SWIDTH 772 0
DWIDTH 9 0
BBX 7 8 1 0
BITMAP
1C
38
00
7C
06
7E
C6
7E
ENDCHAR
STARTCHAR acircumflex
ENCODING 226
SWIDTH 772 0
DWIDTH 9 0
BBX 7 8 1 0
BITMAP
38
6C
00
7C
06
7E
C6
7E
ENDCHAR
STARTCHAR atilde
ENCODING 227
SWIDTH 772 0
DWIDTH 9 0
BBX 7 8 1 0
BITMAP
3C
78
00
7C
06
7E
C6
7E
ENDCHAR
STARTCHAR adieresis
ENCODING 228
SWIDTH 772 0
DWIDTH 9 0
BBX 7 8 1 0
BITMAP
6C
6C
00
7C
06
7E
C6
7E
ENDCHAR
STARTCHAR aring
ENCODING 229
SWIDTH 772 0
DWIDTH 9 0
BBX 7 8 1 0
BITMAP
10
28
10
7C
06
7E
C6
7E
ENDCHAR
STARTCHAR ae
ENCODING 230
SWIDTH 1318 0
DWIDTH 15 0
BBX 13 5 1 0
BITMAP
7DF0
0718
7FF8
C700
7DF0
ENDCHAR
STARTCHAR ccedilla
ENCODING 231
SWIDTH 772 0
DWIDTH 9 0
BBX 7 7 1 -2
BITMAP
7C
C6
C0
C6
7C
0C
38
ENDCHAR
STARTCHAR egrave
ENCODING 232
SWIDTH 772 0
DWIDTH 9 0
BBX 7 8 1 0
BITMAP
70
38
00
7C
C6
FE
C0
7C
ENDCHAR
STARTCHAR eacute
ENCODING 233
SWIDTH 772 0
DWIDTH 9 0
BBX 7 8 1 0
BITMAP
1C
38
00
7C
C6
FE
C0
7C
ENDCHAR
STARTCHAR ecircumflex
ENCODING 234
SWIDTH 772 0
DWIDTH 9 0
BBX 7 8 1 0
BITMAP
38
6C
00
7C
C6
FE
C0
7C
ENDCHAR
STARTCHAR edieresis
ENCODING 235
SWIDTH 772 0
DWIDTH 9 0
BBX 7 8 1 0
BITMAP
6C
6C
00
7C
C6
FE
C0
7C
ENDCHAR
STARTCHAR igrave
ENCODING 236
SWIDTH 318 0
DWIDTH 4 0
BBX 3 8 0 0
BITMAP
C0
60
00
60
60
60
60
60
ENDCHAR
STARTCHAR iacute
ENCODING 237
SWIDTH 408 0
DWIDTH 5 0
BBX 3 8 1 0
BITMAP
60
C0
00
C0
C0
C0
C0
C0
ENDCHAR
STARTCHAR icircumflex
ENCODING 238
SWIDTH 454 0
DWIDTH 5 0
BBX 6 8 -1 0
BITMAP
78
FC
00
30
30
30
30
30
ENDCHAR
STARTCHAR idieresis
ENCODING 239
SWIDTH 454 0
DWIDTH 5 0
BBX 6 8 -1 0
BITMAP
FC
FC
00
30
30
30
30
30
ENDCHAR
STARTCHAR eth
ENCODING 240
SWIDTH 863 0
DWIDTH 10 0
BBX 8 8 1 0
BITMAP
06
1F
06
7E
C6
C6
C6
7C
ENDCHAR
STARTCHAR ntilde
ENCODING 241
SWIDTH 772 0
DWIDTH 9 0
BBX 7 8 1 0
BITMAP
3C
78
00
FC
C6
C6
C6
C6
ENDCHAR
STARTCHAR ograve
ENCODING 242
SWIDTH 772 0
DWIDTH 9 0
BBX 7 8 1 0
BITMAP
70
38
00
7C
C6
C6
C6
7C
ENDCHAR
STARTCHAR oacute
ENCODING 243
SWIDTH 772 0
DWIDTH 9 0
BBX 7 8 1 0
BITMAP
1C
38
00
7C
C6
C6
C6
7C
ENDCHAR
STARTCHAR ocircumflex
ENCODING 244
SWIDTH 772 0
DWIDTH 9 0
BBX 7 8 1 0
BITMAP
38
6C
00
7C
C6
C6
C6
7C
ENDCHAR
STARTCHAR otilde
ENCODING 245
SWIDTH 772 0
DWIDTH 9 0
BBX 7 8 1 0
BITMAP
3C
78
00
7C
C6
C6
C6
7C
ENDCHAR
STARTCHAR odieresis
ENCODING 246
SWIDTH 772 0
DWIDTH 9 0
BBX 7 8 1 0
BITMAP
6C
6C
00
7C
C6
C6
C6
7C
ENDCHAR
STARTCHAR divide
ENCODING 247
SWIDTH 681 0
DWIDTH 8 0
BBX 6 5 1 1
BITMAP
30
00
FC
00
30
ENDCHAR
STARTCHAR oslash
ENCODING 248
SWIDTH 772 0
DWIDTH 9 0
BBX 7 5 1 0
BITMAP
7E
CC
D6
66
BC
ENDCHAR
STARTCHAR ugrave
ENCODING 249
SWIDTH 772 0
DWIDTH 9 0
BBX 7 8 1 0
BITMAP
70
38
00
C6
C6
C6
C6
7E
ENDCHAR
STARTCHAR uacute
ENCODING 250
SWIDTH 772 0
DWIDTH 9 0
BBX 7 8 1 0
BITMAP
1C
38
00
C6
C6
C6
C6
7E
ENDCHAR
STARTCHAR ucircumflex
ENCODING 251
SWIDTH 772 0
DWIDTH 9 0
BBX 7 8 1 0
BITMAP
38
6C
00
C6
C6
C6
C6
7E
ENDCHAR
STARTCHAR udieresis
ENCODING 252
SWIDTH 772 0
DWIDTH 9 0
BBX 7 8 1 0
BITMAP
6C
6C
00
C6
C6
C6
C6
7E
ENDCHAR
STARTCHAR yacute
ENCODING 253
SWIDTH 772 0
DWIDTH 9 0
BBX 7 11 1 -3
BITMAP
1C
38
00
C6
C6
C6
C6
7E
06
06
7C
ENDCHAR
STARTCHAR thorn
ENCODING 254
SWIDTH 772 0
DWIDTH 9 0
BBX 7 11 1 -3
BITMAP
C0
C0
C0
FC
C6
C6
C6
FC
C0
C0
C0
ENDCHAR
STARTCHAR ydieresis
ENCODING 255
SWIDTH 772 0
DWIDTH 9 0
BBX 7 11 1 -3
BITMAP
6C
6C
00
C6
C6
C6
C6
7E
06
06
7C
ENDCHAR
STARTCHAR Ydieresis
ENCODING 376
SWIDTH 772 0
DWIDTH 9 0
BBX 7 11 1 0
BITMAP
6C
6C
00
C6
C6
C6
6C
38
38
38
38
ENDCHAR
STARTCHAR Alpha
ENCODING 913
SWIDTH 772 0
DWIDTH 9 0
BBX 7 8 1 0
BITMAP
38
6C
C6
C6
FE
C6
C6
C6
ENDCHAR
STARTCHAR Beta
ENCODING 914
SWIDTH 772 0
DWIDTH 9 0
BBX 7 8 1 0
BITMAP
FC
C6
C6
FC
C6
C6
C6
FC
ENDCHAR
STARTCHAR Gamma
ENCODING 915
SWIDTH 681 0
DWIDTH 8 0
BBX 6 8 1 0
BITMAP
FC
C0
C0
C0
C0
C0
C0
C0
ENDCHAR
STARTCHAR uni0394
ENCODING 916
SWIDTH 1045 0
DWIDTH 12 0
BBX 10 8 1 0
BITMAP
0C00
1E00
1700
3300
2380
6180
61C0
FFC0
ENDCHAR
STARTCHAR Epsilon
ENCODING 917
SWIDTH 772 0
DWIDTH 9 0
BBX 7 8 1 0
BITMAP
FE
C0
C0
F8
C0
C0
C0
FE
ENDCHAR
STARTCHAR Zeta
ENCODING 918
SWIDTH 772 0
DWIDTH 9 0
BBX 7 8 1 0
BITMAP
FE
06
0C
18
30
60
C0
FE
ENDCHAR
STARTCHAR Eta
ENCODING 919
SWIDTH 772 0
DWIDTH 9 0
BBX 7 8 1 0
BITMAP
C6
C6
C6
FE
C6
C6
C6
C6
ENDCHAR
STARTCHAR Theta
ENCODING 920
SWIDTH 772 0
DWIDTH 9 0
BBX 7 8 1 0
BITMAP
7C
C6
C6
FE
FE
C6
C6
7C
ENDCHAR
STARTCHAR Iota
ENCODING 921
SWIDTH 681 0
DWIDTH 8 0
BBX 6 8 1 0
BITMAP
FC
30
30
30
30
30
30
FC
ENDCHAR
STARTCHAR Kappa
ENCODING 922
SWIDTH 772 0
DWIDTH 9 0
BBX 7 8 1 0
BITMAP
C6
CC
D8
F0
D8
CC
C6
C6
ENDCHAR
STARTCHAR Lambda
ENCODING 923
SWIDTH 1045 0
DWIDTH 12 0
BBX 10 8 1 0
BITMAP
0C00
1E00
1700
3300
2380
6180
41C0
C0C0
ENDCHAR
STARTCHAR Mu
ENCODING 924
SWIDTH 772 0
DWIDTH 9 0
BBX 7 8 1 0
BITMAP
82
C6
EE
FE
D6
C6
C6
C6
ENDCHAR
STARTCHAR Nu
ENCODING 925
SWIDTH 772 0
DWIDTH 9 0
BBX 7 8 1 0
BITMAP
86
C6
E6
F6
DE
CE
C6
C2
ENDCHAR
STARTCHAR Xi
ENCODING 926
SWIDTH 772 0
DWIDTH 9 0
BBX 7 8 1 0
BITMAP
FE
00
00
7C
7C
00
00
FE
ENDCHAR
STARTCHAR Omicron
ENCODING 927
SWIDTH 772 0
DWIDTH 9 0
BBX 7 8 1 0
BITMAP
7C
C6
C6
C6
C6
C6
C6
7C
ENDCHAR
STARTCHAR Pi
ENCODING 928
SWIDTH 954 0
DWIDTH 11 0
BBX 9 8 1 0
BITMAP
FF80
6300
6300
6300
6300
6300
6300
6300
ENDCHAR
STARTCHAR Rho
ENCODING 929
SWIDTH 772 0
DWIDTH 9 0
BBX 7 8 1 0
BITMAP
FC
C6
C6
FC
C0
C0
C0
C0
ENDCHAR
STARTCHAR Sigma
ENCODING 931
SWIDTH 772 0
DWIDTH 9 0
BBX 7 8 1 0
BITMAP
FE
C0
E0
70
20
40
C0
FE
ENDCHAR
STARTCHAR Tau
ENCODING 932
SWIDTH 772 0
DWIDTH 9 0
BBX 7 8 1 0
BITMAP
FE
38
38
38
38
38
38
38
ENDCHAR
STARTCHAR Upsilon
ENCODING 933
SWIDTH 954 0
DWIDTH 11 0
BBX 9 8 1 0
BITMAP
C180
6300
6300
3600
1C00
1C00
1C00
1C00
ENDCHAR
STARTCHAR Phi
ENCODING 934
SWIDTH 954 0
DWIDTH 11 0
BBX 9 8 1 0
BITMAP
1C00
7F00
DD80
DD80
DD80
DD80
7F00
1C00
ENDCHAR
STARTCHAR Chi
ENCODING 935
SWIDTH 772 0
DWIDTH 9 0
BBX 7 8 1 0
BITMAP
C6
C6
6C
38
6C
C6
C6
C6
ENDCHAR
STARTCHAR Psi
ENCODING 936
SWIDTH 1136 0
DWIDTH 13 0
BBX 11 8 1 0
BITMAP
CE60
6EC0
3F80
1F00
0E00
0E00
0E00
0E00
ENDCHAR
STARTCHAR uni03A9
ENCODING 937
SWIDTH 1136 0
DWIDTH 13 0
BBX 11 8 1 0
BITMAP
3F80
60C0
C060
C060
60C0
3180
1B00
FBE0
ENDCHAR
STARTCHAR alpha
ENCODING 945
SWIDTH 772 0
DWIDTH 9 0
BBX 7 5 1 0
BITMAP
76
DC
CC
DC
76
ENDCHAR
STARTCHAR beta
ENCODING 946
SWIDTH 772 0
DWIDTH 9 0
BBX 7 11 1 -3
BITMAP
3C
66
C6
C4
DE
C6
EC
D8
C0
C0
C0
ENDCHAR
STARTCHAR uni0401
ENCODING 1025
SWIDTH 772 0
DWIDTH 9 0
BBX 7 11 1 0
BITMAP
6C
6C
00
FE
C0
C0
F8
C0
C0
C0
FE
ENDCHAR
STARTCHAR uni0404
ENCODING 1028
SWIDTH 772 0
DWIDTH 9 0
BBX 7 8 1 0
BITMAP
3C
66
C0
F8
C0
C0
66
3C
ENDCHAR
STARTCHAR uni0406
ENCODING 1030
SWIDTH 681 0
DWIDTH 8 0
BBX 6 8 1 0
BITMAP
FC
30
30
30
30
30
30
FC
ENDCHAR
STARTCHAR uni0407
ENCODING 1031
SWIDTH 727 0
DWIDTH 8 0
BBX 7 11 1 0
BITMAP
FC
FC
00
FC
38
38
38
38
38
38
FE
ENDCHAR
STARTCHAR uni0409
ENCODING 1033
SWIDTH 1181 0
DWIDTH 13 0
BBX 12 8 1 0
BITMAP
3E00
6600
6600
67E0
6670
6670
6670
C7E0
ENDCHAR
STARTCHAR uni040A
ENCODING 1034
SWIDTH 1136 0
DWIDTH 13 0
BBX 11 8 1 0
BITMAP
C600
C600
C600
FFC0
C660
C660
C660
C7C0
ENDCHAR
STARTCHAR uni0410
ENCODING 1040
SWIDTH 772 0
DWIDTH 9 0
BBX 7 8 1 0
BITMAP
38
6C
C6
C6
C6
C6
C6
C6
ENDCHAR
STARTCHAR uni0411
ENCODING 1041
SWIDTH 772 0
DWIDTH 9 0
BBX 7 8 1 0
BITMAP
FC
C0
C0
FC
C6
C6
C6
FC
ENDCHAR
STARTCHAR uni0412
ENCODING 1042
SWIDTH 772 0
DWIDTH 9 0
BBX 7 8 1 0
BITMAP
FC
C6
C6
FC
C6
C6
C6
FC
ENDCHAR
STARTCHAR uni0413
ENCODING 1043
SWIDTH 681 0
DWIDTH 8 0
BBX 6 8 1 0
BITMAP
FC
C0
C0
C0
C0
C0
C0
C0
ENDCHAR
STARTCHAR uni0414
ENCODING 1044
SWIDTH 863 0
DWIDTH 10 0
BBX 8 10 1 -2
BITMAP
3E
66
66
66
66
66
66
FF
C3
C3
ENDCHAR
STARTCHAR uni0415
ENCODING 1045
SWIDTH 772 0
DWIDTH 9 0
BBX 7 8 1 0
BITMAP
FE
C0
C0
F8
C0
C0
C0
FE
ENDCHAR
STARTCHAR uni0416
ENCODING 1046
SWIDTH 863 0
DWIDTH 10 0
BBX 8 8 1 0
BITMAP
DB
DB
DB
7E
DB
DB
DB
DB
ENDCHAR
STARTCHAR uni0417
ENCODING 1047
SWIDTH 772 0
DWIDTH 9 0
BBX 7 8 1 0
BITMAP
7C
C6
06
04
3E
06
C6
7C
ENDCHAR
STARTCHAR uni0418
ENCODING 1048
SWIDTH 772 0
DWIDTH 9 0
BBX 7 8 1 0
BITMAP
C2
C6
CE
DE
F6
E6
C6
86
ENDCHAR
STARTCHAR uni0419
ENCODING 1049
SWIDTH 772 0
DWIDTH 9 0
BBX 7 11 1 0
BITMAP
EE
7C
00
C2
C6
CE
DE
F6
E6
C6
86
ENDCHAR
STARTCHAR uni041A
ENCODING 1050
SWIDTH 772 0
DWIDTH 9 0
BBX 7 8 1 0
BITMAP
C6
CC
D8
F0
D8
CC
C6
C6
ENDCHAR
STARTCHAR uni041B
ENCODING 1051
SWIDTH 772 0
DWIDTH 9 0
BBX 7 8 1 0
BITMAP
3E
66
66
66
66
66
66
C6
ENDCHAR
STARTCHAR uni041C
ENCODING 1052
SWIDTH 772 0
DWIDTH 9 0
BBX 7 8 1 0
BITMAP
82
C6
EE
FE
D6
C6
C6
C6
ENDCHAR
STARTCHAR uni041D
ENCODING 1053
SWIDTH 772 0
DWIDTH 9 0
BBX 7 8 1 0
BITMAP
C6
C6
C6
FE
C6
C6
C6
C6
ENDCHAR
STARTCHAR uni041E
ENCODING 1054
SWIDTH 772 0
DWIDTH 9 0
BBX 7 8 1 0
BITMAP
7C
C6
C6
C6
C6
C6
C6
7C
ENDCHAR
STARTCHAR uni041F
ENCODING 1055
SWIDTH 772 0
DWIDTH 9 0
BBX 7 8 1 0
BITMAP
FE
C6
C6
C6
C6
C6
C6
C6
ENDCHAR
STARTCHAR uni0420
ENCODING 1056
SWIDTH 772 0
DWIDTH 9 0
BBX 7 8 1 0
BITMAP
FC
C6
C6
FC
C0
C0
C0
C0
ENDCHAR
STARTCHAR uni0421
ENCODING 1057
SWIDTH 772 0
DWIDTH 9 0
BBX 7 8 1 0
BITMAP
3C
66
C0
C0
C0
C0
66
3C
ENDCHAR
STARTCHAR uni0422
ENCODING 1058
SWIDTH 772 0
DWIDTH 9 0
BBX 7 8 1 0
BITMAP
FE
38
38
38
38
38
38
38
ENDCHAR
STARTCHAR uni0423
ENCODING 1059
SWIDTH 772 0
DWIDTH 9 0
BBX 7 8 1 0
BITMAP
C6
C6
C6
C6
7E
06
C6
7C
ENDCHAR
STARTCHAR uni0424
ENCODING 1060
SWIDTH 1045 0
DWIDTH 12 0
BBX 10 8 1 0
BITMAP
0C00
7F80
CCC0
CCC0
CCC0
CCC0
7F80
0C00
ENDCHAR
STARTCHAR uni0425
ENCODING 1061
SWIDTH 772 0
DWIDTH 9 0
BBX 7 8 1 0
BITMAP
C6
C6
6C
38
6C
C6
C6
C6
ENDCHAR
STARTCHAR uni0426
ENCODING 1062
SWIDTH 863 0
DWIDTH 10 0
BBX 8 10 1 -2
BITMAP
C6
C6
C6
C6
C6
C6
C6
FF
03
03
ENDCHAR
STARTCHAR uni0427
ENCODING 1063
SWIDTH 772 0
DWIDTH 9 0
BBX 7 8 1 0
BITMAP
C6
C6
C6
C6
7E
06
06
06
ENDCHAR
STARTCHAR uni0428
ENCODING 1064
SWIDTH 954 0
DWIDTH 11 0
BBX 9 8 1 0
BITMAP
DD80
DD80
DD80
DD80
DD80
DD80
DD80
FF80
ENDCHAR
STARTCHAR uni0429
ENCODING 1065
SWIDTH 1045 0
DWIDTH 12 0
BBX 10 10 1 -2
BITMAP
DD80
DD80
DD80
DD80
DD80
DD80
DD80
FFC0
00C0
00C0
ENDCHAR
STARTCHAR uni042A
ENCODING 1066
SWIDTH 908 0
DWIDTH 10 0
BBX 9 8 1 0
BITMAP
F000
7000
7000
7F00
7380
7380
7380
7F00
ENDCHAR
STARTCHAR uni042B
ENCODING 1067
SWIDTH 1045 0
DWIDTH 12 0
BBX 10 8 1 0
BITMAP
C0C0
C0C0
C0C0
FCC0
C6C0
C6C0
C6C0
FCC0
ENDCHAR
STARTCHAR uni042C
ENCODING 1068
SWIDTH 772 0
DWIDTH 9 0
BBX 7 8 1 0
BITMAP
C0
C0
C0
FC
C6
C6
C6
FC
ENDCHAR
STARTCHAR uni042D
ENCODING 1069
SWIDTH 772 0
DWIDTH 9 0
BBX 7 8 1 0
BITMAP
78
CC
06
06
3E
06
CC
78
ENDCHAR
STARTCHAR uni042E
ENCODING 1070
SWIDTH 1090 0
DWIDTH 12 0
BBX 11 8 1 0
BITMAP
EFC0
FCE0
FCE0
FCE0
FCE0
FCE0
FCE0
EFC0
ENDCHAR
STARTCHAR uni042F
ENCODING 1071
SWIDTH 772 0
DWIDTH 9 0
BBX 7 8 1 0
BITMAP
7E
C6
C6
7E
C6
C6
C6
C6
ENDCHAR
STARTCHAR uni0430
ENCODING 1072
SWIDTH 772 0
DWIDTH 9 0
BBX 7 5 1 0
BITMAP
7C
06
7E
C6
7E
ENDCHAR
STARTCHAR uni0431
ENCODING 1073
SWIDTH 772 0
DWIDTH 9 0
BBX 7 8 1 0
BITMAP
7C
C0
C0
DC
F6
C6
C6
7C
ENDCHAR
STARTCHAR uni0432
ENCODING 1074
SWIDTH 772 0
DWIDTH 9 0
BBX 7 5 1 0
BITMAP
FC
C6
FC
C6
FC
ENDCHAR
STARTCHAR uni0433
ENCODING 1075
SWIDTH 590 0
DWIDTH 7 0
BBX 5 5 1 0
BITMAP
F8
C0
C0
C0
C0
ENDCHAR
STARTCHAR uni0434
ENCODING 1076
SWIDTH 863 0
DWIDTH 10 0
BBX 8 7 1 -2
BITMAP
3E
66
66
66
FF
C3
C3
ENDCHAR
STARTCHAR uni0435
ENCODING 1077
SWIDTH 772 0
DWIDTH 9 0
BBX 7 5 1 0
BITMAP
7C
C6
FE
C0
7C
ENDCHAR
STARTCHAR uni0436
ENCODING 1078
SWIDTH 863 0
DWIDTH 10 0
BBX 8 5 1 0
BITMAP
DB
DB
7E
DB
DB
ENDCHAR
STARTCHAR uni0437
ENCODING 1079
SWIDTH 772 0
DWIDTH 9 0
BBX 7 5 1 0
BITMAP
7C
C6
1C
C6
7C
ENDCHAR
STARTCHAR uni0438
ENCODING 1080
SWIDTH 772 0
DWIDTH 9 0
BBX 7 5 1 0
BITMAP
C6
CE
D6
E6
C6
ENDCHAR
STARTCHAR uni0439
ENCODING 1081
SWIDTH 772 0
DWIDTH 9 0
BBX 7 8 1 0
BITMAP
EE
7C
00
C6
CE
D6
E6
C6
ENDCHAR
STARTCHAR uni043A
ENCODING 1082
SWIDTH 681 0
DWIDTH 8 0
BBX 6 5 1 0
BITMAP
CC
D8
F0
D8
CC
ENDCHAR
STARTCHAR uni043B
ENCODING 1083
SWIDTH 772 0
DWIDTH 9 0
BBX 7 5 1 0
BITMAP
3E
66
66
66
C6
ENDCHAR
STARTCHAR uni043C
ENCODING 1084
SWIDTH 772 0
DWIDTH 9 0
BBX 7 5 1 0
BITMAP
C6
EE
FE
D6
C6
ENDCHAR
STARTCHAR uni043D
ENCODING 1085
SWIDTH 772 0
DWIDTH 9 0
BBX 7 5 1 0
BITMAP
C6
C6
FE
C6
C6
ENDCHAR
STARTCHAR uni043E
ENCODING 1086
SWIDTH 772 0
DWIDTH 9 0
BBX 7 5 1 0
BITMAP
7C
C6
C6
C6
7C
ENDCHAR
STARTCHAR uni043F
ENCODING 1087
SWIDTH 772 0
DWIDTH 9 0
BBX 7 5 1 0
BITMAP
FE
C6
C6
C6
C6
ENDCHAR
STARTCHAR uni0440
ENCODING 1088
SWIDTH 772 0
DWIDTH 9 0
BBX 7 8 1 -3
BITMAP
FC
C6
C6
C6
FC
C0
C0
C0
ENDCHAR
STARTCHAR uni0441
ENCODING 1089
SWIDTH 772 0
DWIDTH 9 0
BBX 7 5 1 0
BITMAP
7C
C6
C0
C6
7C
ENDCHAR
STARTCHAR uni0442
ENCODING 1090
SWIDTH 681 0
DWIDTH 8 0
BBX 6 5 1 0
BITMAP
FC
30
30
30
30
ENDCHAR
STARTCHAR uni0443
ENCODING 1091
SWIDTH 772 0
DWIDTH 9 0
BBX 7 8 1 -3
BITMAP
C6
C6
C6
C6
7E
06
06
7C
ENDCHAR
STARTCHAR uni0444
ENCODING 1092
SWIDTH 954 0
DWIDTH 11 0
BBX 9 11 1 -3
BITMAP
1C00
1C00
1C00
7F00
DD80
DD80
DD80
7F00
1C00
1C00
1C00
ENDCHAR
STARTCHAR uni0445
ENCODING 1093
SWIDTH 772 0
DWIDTH 9 0
BBX 7 5 1 0
BITMAP
C6
6C
38
6C
C6
ENDCHAR
STARTCHAR uni0446
ENCODING 1094
SWIDTH 863 0
DWIDTH 10 0
BBX 8 7 1 -2
BITMAP
C6
C6
C6
C6
FF
03
03
ENDCHAR
STARTCHAR uni0447
ENCODING 1095
SWIDTH 772 0
DWIDTH 9 0
BBX 7 5 1 0
BITMAP
C6
C6
C6
7E
06
ENDCHAR
STARTCHAR uni0448
ENCODING 1096
SWIDTH 863 0
DWIDTH 10 0
BBX 8 5 1 0
BITMAP
DB
DB
DB
DB
FF
ENDCHAR
STARTCHAR uni0449
ENCODING 1097
SWIDTH 954 0
DWIDTH 11 0
BBX 9 7 1 -2
BITMAP
DB00
DB00
DB00
DB00
FF80
0180
0180
ENDCHAR
STARTCHAR uni044A
ENCODING 1098
SWIDTH 908 0
DWIDTH 10 0
BBX 9 5 1 0
BITMAP
F000
7000
7F00
7380
7F00
ENDCHAR
STARTCHAR uni044B
ENCODING 1099
SWIDTH 954 0
DWIDTH 11 0
BBX 9 5 1 0
BITMAP
C180
C180
F980
CD80
F980
ENDCHAR
STARTCHAR uni044C
ENCODING 1100
SWIDTH 772 0
DWIDTH 9 0
BBX 7 5 1 0
BITMAP
C0
C0
FC
C6
FC
ENDCHAR
STARTCHAR uni044D
ENCODING 1101
SWIDTH 772 0
DWIDTH 9 0
BBX 7 5 1 0
BITMAP
7C
C6
1E
C6
7C
ENDCHAR
STARTCHAR uni044E
ENCODING 1102
SWIDTH 1045 0
DWIDTH 12 0
BBX 10 5 1 0
BITMAP
CF80
D8C0
F8C0
D8C0
CF80
ENDCHAR
STARTCHAR uni044F
ENCODING 1103
SWIDTH 772 0
DWIDTH 9 0
BBX 7 5 1 0
BITMAP
7E
C6
7E
C6
C6
ENDCHAR
STARTCHAR uni0450
ENCODING 1104
SWIDTH 772 0
DWIDTH 9 0
BBX 7 8 1 0
BITMAP
70
38
00
7C
C6
FE
C0
7C
ENDCHAR
STARTCHAR uni0451
ENCODING 1105
SWIDTH 772 0
DWIDTH 9 0
BBX 7 8 1 0
BITMAP
6C
6C
00
7C
C6
FE
C0
7C
ENDCHAR
STARTCHAR uni0453
ENCODING 1107
SWIDTH 590 0
DWIDTH 7 0
BBX 5 8 1 0
BITMAP
38
70
00
F8
C0
C0
C0
C0
ENDCHAR
STARTCHAR uni0454
ENCODING 1108
SWIDTH 772 0
DWIDTH 9 0
BBX 7 5 1 0
BITMAP
7C
C6
F0
C6
7C
ENDCHAR
STARTCHAR uni0456
ENCODING 1110
SWIDTH 318 0
DWIDTH 4 0
BBX 2 8 1 0
BITMAP
C0
C0
00
C0
C0
C0
C0
C0
ENDCHAR
STARTCHAR uni0457
ENCODING 1111
SWIDTH 454 0
DWIDTH 5 0
BBX 6 8 -1 0
BITMAP
FC
FC
00
30
30
30
30
30
ENDCHAR
STARTCHAR uni0459
ENCODING 1113
SWIDTH 1136 0
DWIDTH 13 0
BBX 11 5 1 0
BITMAP
7E00
6600
67C0
6660
C7C0
ENDCHAR
STARTCHAR uni045A
ENCODING 1114
SWIDTH 1136 0
DWIDTH 13 0
BBX 11 5 1 0
BITMAP
C600
C600
FFC0
C660
C7C0
ENDCHAR
STARTCHAR uni045B
ENCODING 1115
SWIDTH 772 0
DWIDTH 9 0
BBX 8 8 0 0
BITMAP
60
F8
60
6E
7B
63
63
63
ENDCHAR
STARTCHAR uni045C
ENCODING 1116
SWIDTH 681 0
DWIDTH 8 0
BBX 6 8 1 0
BITMAP
18
30
00
CC
D8
F0
D8
CC
ENDCHAR
STARTCHAR uni045D
ENCODING 1117
SWIDTH 772 0
DWIDTH 9 0
BBX 7 8 1 0
BITMAP
70
38
00
C6
CE
D6
E6
C6
ENDCHAR
STARTCHAR uni045E
ENCODING 1118
SWIDTH 772 0
DWIDTH 9 0
BBX 7 11 1 -3
BITMAP
EE
7C
00
C6
C6
C6
C6
7E
06
06
7C
ENDCHAR
STARTCHAR uni0490
ENCODING 1168
SWIDTH 681 0
DWIDTH 8 0
BBX 6 10 1 0
BITMAP
0C
0C
FC
C0
C0
C0
C0
C0
C0
C0
ENDCHAR
STARTCHAR uni0491
ENCODING 1169
SWIDTH 590 0
DWIDTH 7 0
BBX 5 7 1 0
BITMAP
18
18
F8
C0
C0
C0
C0
ENDCHAR
STARTCHAR uni0492
ENCODING 1170
SWIDTH 681 0
DWIDTH 8 0
BBX 7 8 0 0
BITMAP
7E
60
60
F8
60
60
60
60
ENDCHAR
STARTCHAR uni0493
ENCODING 1171
SWIDTH 590 0
DWIDTH 7 0
BBX 6 5 0 0
BITMAP
7C
60
F8
60
60
ENDCHAR
STARTCHAR uni0496
ENCODING 1174
SWIDTH 954 0
DWIDTH 11 0
BBX 9 10 1 -2
BITMAP
DB00
DB00
DB00
DA00
5B00
DB00
DB00
DB80
0180
0180
ENDCHAR
STARTCHAR uni0497
ENCODING 1175
SWIDTH 954 0
DWIDTH 11 0
BBX 9 7 1 -2
BITMAP
DB00
DB00
7E00
DB00
DB80
0180
0180
ENDCHAR
STARTCHAR uni049A
ENCODING 1178
SWIDTH 863 0
DWIDTH 10 0
BBX 8 10 1 -2
BITMAP
C6
CC
D8
F0
D8
CC
C6
C7
03
03
ENDCHAR
STARTCHAR uni049B
ENCODING 1179
SWIDTH 818 0
DWIDTH 9 0
BBX 8 7 1 -2
BITMAP
CE
D8
F0
D8
CF
07
07
ENDCHAR
STARTCHAR uni049C
ENCODING 1180
SWIDTH 863 0
DWIDTH 10 0
BBX 8 8 1 0
BITMAP
C3
F6
FC
F8
FC
F6
C3
C3
ENDCHAR
STARTCHAR uni049D
ENCODING 1181
SWIDTH 772 0
DWIDTH 9 0
BBX 7 5 1 0
BITMAP
C6
FC
F8
FC
C6
ENDCHAR
STARTCHAR uni049E
ENCODING 1182
SWIDTH 772 0
DWIDTH 9 0
BBX 8 8 0 0
BITMAP
63
F6
6C
78
6C
66
63
63
ENDCHAR
STARTCHAR uni049F
ENCODING 1183
SWIDTH 727 0
DWIDTH 8 0
BBX 8 8 0 0
BITMAP
60
70
E0
67
6C
78
6C
66
ENDCHAR
STARTCHAR uni04A0
ENCODING 1184
SWIDTH 908 0
DWIDTH 10 0
BBX 9 8 1 0
BITMAP
F380
7700
7E00
7C00
7E00
7700
7380
7380
ENDCHAR
STARTCHAR uni04A1
ENCODING 1185
SWIDTH 863 0
DWIDTH 10 0
BBX 8 5 1 0
BITMAP
F7
7E
7C
7E
77
ENDCHAR
STARTCHAR uni04A2
ENCODING 1186
SWIDTH 863 0
DWIDTH 10 0
BBX 8 10 1 -2
BITMAP
C6
C6
C6
FE
C6
C6
C6
C7
03
03
ENDCHAR
STARTCHAR uni04A3
ENCODING 1187
SWIDTH 863 0
DWIDTH 10 0
BBX 8 7 1 -2
BITMAP
C6
C6
FE
C6
C7
03
03
ENDCHAR
STARTCHAR uni04A4
ENCODING 1188
SWIDTH 908 0
DWIDTH 10 0
BBX 9 8 1 0
BITMAP
C780
C600
C600
FE00
C600
C600
C600
C600
ENDCHAR
STARTCHAR uni04A5
ENCODING 1189
SWIDTH 954 0
DWIDTH 11 0
BBX 9 5 1 0
BITMAP
C780
C600
FE00
C600
C600
ENDCHAR
STARTCHAR uni04AC
ENCODING 1196
SWIDTH 772 0
DWIDTH 9 0
BBX 7 10 1 -2
BITMAP
FE
38
38
38
38
38
38
3C
0C
0C
ENDCHAR
STARTCHAR uni04AD
ENCODING 1197
SWIDTH 681 0
DWIDTH 8 0
BBX 6 7 1 -2
BITMAP
FC
30
30
30
3C
1C
1C
ENDCHAR
STARTCHAR quoteleft
ENCODING 8216
SWIDTH 408 0
DWIDTH 5 0
BBX 3 3 1 5
BITMAP
60
C0
C0
ENDCHAR
STARTCHAR quoteright
ENCODING 8217
SWIDTH 318 0
DWIDTH 4 0
BBX 3 3 0 5
BITMAP
60
60
C0
ENDCHAR
STARTCHAR quotedblleft
ENCODING 8220
SWIDTH 681 0
DWIDTH 8 0
BBX 6 3 1 5
BITMAP
6C
D8
D8
ENDCHAR
STARTCHAR quotedblright
ENCODING 8221
SWIDTH 590 0
DWIDTH 7 0
BBX 6 3 0 5
BITMAP
6C
6C
D8
ENDCHAR
STARTCHAR Euro
ENCODING 8364
SWIDTH 863 0
DWIDTH 10 0
BBX 9 8 0 0
BITMAP
0F00
1980
3000
7C00
3E00
F000
3980
1F00
ENDCHAR
STARTCHAR trademark
ENCODING 8482
SWIDTH 954 0
DWIDTH 11 0
BBX 9 4 1 4
BITMAP
F880
6D80
6A80
6880
ENDCHAR
STARTCHAR uniFB00
ENCODING 64256
SWIDTH 954 0
DWIDTH 11 0
BBX 9 8 1 0
BITMAP
3B80
6600
6600
FF80
6600
6600
6600
6600
ENDCHAR
STARTCHAR uniFB01
ENCODING 64257
SWIDTH 772 0
DWIDTH 9 0
BBX 7 8 1 0
BITMAP
38
60
60
FE
66
66
66
66
ENDCHAR
STARTCHAR uniFB02
ENCODING 64258
SWIDTH 863 0
DWIDTH 10 0
BBX 8 8 1 0
BITMAP
3E
66
66
FE
66
66
66
63
ENDCHAR
STARTCHAR uniFB03
ENCODING 64259
SWIDTH 1136 0
DWIDTH 13 0
BBX 11 8 1 0
BITMAP
3B80
6600
6600
FFE0
6660
6660
6660
6660
ENDCHAR
STARTCHAR uniFB04
ENCODING 64260
SWIDTH 1227 0
DWIDTH 14 0
BBX 12 8 1 0
BITMAP
3BE0
6660
6660
FFE0
6660
6660
6660
6630
ENDCHAR
STARTCHAR .notdef
ENCODING -1
SWIDTH 599 0
DWIDTH 7 0
BBX 4 12 2 -2
BITMAP
F0
B0
70
30
C0
E0
F0
60
90
60
90
D0
ENDCHAR
STARTCHAR glyph1
ENCODING -1
SWIDTH 45 0
DWIDTH 1 0
BBX 1 1 0 0
BITMAP
00
ENDCHAR
STARTCHAR glyph2
ENCODING -1
SWIDTH 45 0
DWIDTH 1 0
BBX 1 1 0 0
BITMAP
00
ENDCHAR
ENDFONT
